<svg xmlns="http://www.w3.org/2000/svg" xmlns:xlink="http://www.w3.org/1999/xlink" width="382.927" height="101.276" viewBox="0 0 382.927 101.276">
  <defs>
    <linearGradient id="linear-gradient" y1="0.5" x2="1" y2="0.596" gradientUnits="objectBoundingBox">
      <stop offset="0" stop-color="#b269b1"/>
      <stop offset="1" stop-color="#ff5770"/>
    </linearGradient>
    <clipPath id="clip-path">
      <rect width="359.615" height="7.929" fill="none"/>
    </clipPath>
  </defs>
  <g id="Group_11" data-name="Group 11" transform="translate(-322.237 -765.752)">
    <g id="Group_7" data-name="Group 7">
      <path id="Path_28" data-name="Path 28" d="M29.985,1.411a25.312,25.312,0,0,1-10.1-2.076,25.9,25.9,0,0,1-8.563-5.98,29.083,29.083,0,0,1-5.889-9.532,34.647,34.647,0,0,1-2.2-12.688A36.266,36.266,0,0,1,5.394-41.678a30.048,30.048,0,0,1,5.971-9.905,26.169,26.169,0,0,1,8.915-6.354,27.181,27.181,0,0,1,10.988-2.243A26.855,26.855,0,0,1,39.146-59.1a29.277,29.277,0,0,1,6.717,3.03l1.7-2.822h3.32l.374,21h-3.4a49.579,49.579,0,0,0-1.99-6.661,25.744,25.744,0,0,0-3.109-6.08,15.078,15.078,0,0,0-4.726-4.42,12.18,12.18,0,0,0-6.259-1.6,16.08,16.08,0,0,0-7.483,1.786,17.037,17.037,0,0,0-5.99,5.275,26.039,26.039,0,0,0-3.773,8.557,45.493,45.493,0,0,0-1.368,11.589,35.578,35.578,0,0,0,1.43,10.363A26.811,26.811,0,0,0,18.671-10.8a19.682,19.682,0,0,0,6.28,5.524,16.544,16.544,0,0,0,8.105,1.994,17.443,17.443,0,0,0,6.177-1.058,16.579,16.579,0,0,0,4.892-2.8,21.831,21.831,0,0,0,3.648-4.15,22.933,22.933,0,0,0,2.57-5.063l3.113,1.494Q49.891-6.1,44-2.345A25.509,25.509,0,0,1,29.985,1.411ZM73.256,0H53.292V-2.739q.955-.083,2.034-.187a9.748,9.748,0,0,0,1.785-.312,3.075,3.075,0,0,0,1.743-1.308,4.545,4.545,0,0,0,.581-2.43V-54.407a6.269,6.269,0,0,0-.643-2.8,5.413,5.413,0,0,0-1.681-2.055,8.524,8.524,0,0,0-2.739-.914,24.894,24.894,0,0,0-3.2-.5v-2.656l15.4-.913.581.623V-7.471a4.724,4.724,0,0,0,.54,2.386,3.442,3.442,0,0,0,1.743,1.432,9.646,9.646,0,0,0,1.805.623,13.256,13.256,0,0,0,2.013.291Zm40.426-.747q-1.951.706-3.424,1.141a11.781,11.781,0,0,1-3.341.436,8.142,8.142,0,0,1-5.167-1.515A6.994,6.994,0,0,1,99.28-5.1h-.249A20.242,20.242,0,0,1,93.241-.54a16.232,16.232,0,0,1-7.45,1.577,10.546,10.546,0,0,1-7.574-2.822,9.728,9.728,0,0,1-2.968-7.388,12.588,12.588,0,0,1,.664-4.233,10.119,10.119,0,0,1,1.992-3.362,9.959,9.959,0,0,1,2.739-2.22,23.937,23.937,0,0,1,3.2-1.556q1.868-.706,7.574-2.615a56.775,56.775,0,0,0,7.7-2.988v-4.109a17.4,17.4,0,0,0-.228-2.075,8.69,8.69,0,0,0-.975-2.905,8.265,8.265,0,0,0-2.345-2.677,7.023,7.023,0,0,0-4.3-1.141,9.629,9.629,0,0,0-3.549.643,6.44,6.44,0,0,0-2.3,1.349,11.355,11.355,0,0,0,.394,2.449,12.692,12.692,0,0,1,.394,2.988A3.565,3.565,0,0,1,84.9-28.97a5.16,5.16,0,0,1-3.632,1.2,3.4,3.4,0,0,1-3.051-1.473,5.846,5.846,0,0,1-.975-3.3,5.886,5.886,0,0,1,1.349-3.652A13.546,13.546,0,0,1,82.1-39.3a19.086,19.086,0,0,1,4.524-1.971,17.751,17.751,0,0,1,5.188-.809,33.988,33.988,0,0,1,6.08.477,11.164,11.164,0,0,1,4.711,2.054,9.573,9.573,0,0,1,3.217,4.171,17.8,17.8,0,0,1,1.1,6.786q0,5.935-.125,10.521t-.125,10.023a5.072,5.072,0,0,0,.56,2.573A4.545,4.545,0,0,0,108.95-3.86a4.23,4.23,0,0,0,1.971.415q1.349.042,2.76.042ZM99.2-22.661q-3.528,1.04-6.184,2.038a25.017,25.017,0,0,0-4.939,2.5A11.249,11.249,0,0,0,84.8-14.779a8.523,8.523,0,0,0-1.2,4.6q0,3.452,1.805,5.074a6.6,6.6,0,0,0,4.586,1.622,9.41,9.41,0,0,0,5.188-1.435,15.114,15.114,0,0,0,3.777-3.39Zm42.086,2.615A10.454,10.454,0,0,1,143.9-16.6a11.212,11.212,0,0,1,.913,4.773,11.636,11.636,0,0,1-4.254,9.3Q136.3,1.079,129.538,1.079a16.558,16.558,0,0,1-6.578-1.287,18.112,18.112,0,0,1-4.3-2.366l-.83,2.7h-3.113l-.415-14.236h2.864a15.916,15.916,0,0,0,1.411,3.79A18.208,18.208,0,0,0,121.2-6.407a14.434,14.434,0,0,0,3.881,3.082,10.338,10.338,0,0,0,5.084,1.249A9.283,9.283,0,0,0,136.3-3.891a6.414,6.414,0,0,0,2.158-5.2,6.236,6.236,0,0,0-.685-3.009,6.628,6.628,0,0,0-2.013-2.22,15.846,15.846,0,0,0-3.362-1.722q-1.992-.768-4.441-1.515a41.241,41.241,0,0,1-4.337-1.6,17.288,17.288,0,0,1-4.088-2.386,11.7,11.7,0,0,1-2.988-3.569,10.191,10.191,0,0,1-1.162-4.98A11.2,11.2,0,0,1,119.12-38.6q3.735-3.486,10-3.486a20.394,20.394,0,0,1,4.918.623,17.014,17.014,0,0,1,4.088,1.494l.955-2.158h2.988l.623,13.157h-2.864a13.225,13.225,0,0,0-3.756-7.189,9.774,9.774,0,0,0-7.035-2.772,7.833,7.833,0,0,0-5.354,1.714,5.318,5.318,0,0,0-1.951,4.138,6.74,6.74,0,0,0,.643,3.113,5.729,5.729,0,0,0,1.93,2.117,16.1,16.1,0,0,0,3.134,1.556q1.888.726,4.669,1.639a40.153,40.153,0,0,1,5.167,2.034A16.949,16.949,0,0,1,141.283-20.046Zm33.246,0a10.454,10.454,0,0,1,2.615,3.445,11.212,11.212,0,0,1,.913,4.773,11.636,11.636,0,0,1-4.254,9.3q-4.254,3.611-11.019,3.611a16.558,16.558,0,0,1-6.578-1.287,18.111,18.111,0,0,1-4.3-2.366l-.83,2.7h-3.113l-.415-14.236h2.864a15.916,15.916,0,0,0,1.411,3.79,18.208,18.208,0,0,0,2.615,3.915,14.434,14.434,0,0,0,3.881,3.082,10.338,10.338,0,0,0,5.084,1.249,9.283,9.283,0,0,0,6.143-1.816,6.414,6.414,0,0,0,2.158-5.2,6.236,6.236,0,0,0-.685-3.009,6.628,6.628,0,0,0-2.013-2.22,15.846,15.846,0,0,0-3.362-1.722q-1.992-.768-4.441-1.515a41.241,41.241,0,0,1-4.337-1.6,17.288,17.288,0,0,1-4.088-2.386,11.7,11.7,0,0,1-2.988-3.569,10.191,10.191,0,0,1-1.162-4.98,11.2,11.2,0,0,1,3.735-8.508q3.735-3.486,10-3.486a20.394,20.394,0,0,1,4.918.623,17.014,17.014,0,0,1,4.088,1.494l.955-2.158h2.988l.623,13.157h-2.864a13.225,13.225,0,0,0-3.756-7.189,9.774,9.774,0,0,0-7.035-2.772,7.833,7.833,0,0,0-5.354,1.714,5.318,5.318,0,0,0-1.951,4.138,6.74,6.74,0,0,0,.643,3.113,5.73,5.73,0,0,0,1.93,2.117,16.1,16.1,0,0,0,3.134,1.556q1.888.726,4.669,1.639a40.153,40.153,0,0,1,5.167,2.034A16.949,16.949,0,0,1,174.529-20.046Zm3.114,33.411a4.957,4.957,0,0,1,1.141-3.383,3.62,3.62,0,0,1,2.843-1.307,4.907,4.907,0,0,1,2.282.494,6.419,6.419,0,0,1,1.7,1.276,10.712,10.712,0,0,1,1.327,1.689q.706,1.071,1.121,1.77,2.075-1.118,4.958-5.839a47.193,47.193,0,0,0,4.171-8.283q-3.942-9.833-7.137-17.592t-6.68-16.057a5.953,5.953,0,0,0-2.656-2.968,11,11,0,0,0-3.735-1.349v-2.739h18.685v2.905a13.306,13.306,0,0,0-2.989.518q-1.744.477-1.743,1.1a3.165,3.165,0,0,0,.187.829q.187.581.436,1.2,1.573,4.106,4.8,11.84t5.008,12.379q1.87-4.437,3.885-9.186t4.508-11.217q.291-.788.831-2.177a6.781,6.781,0,0,0,.54-2.385q0-1.078-1.888-2.011a11.225,11.225,0,0,0-3.59-1.14v-2.656h15.2v2.573a10.208,10.208,0,0,0-3.279,1.432,7.485,7.485,0,0,0-3.03,3.466Q209.6-22,205.762-12.576T199.931,1.287a76.507,76.507,0,0,1-4.669,9.069,27.205,27.205,0,0,1-4.005,5.126,11.661,11.661,0,0,1-3.466,2.345,8.845,8.845,0,0,1-3.217.6,7.718,7.718,0,0,1-5.084-1.536A4.509,4.509,0,0,1,177.643,13.364ZM276.59-29.094a28.285,28.285,0,0,1-2.822,13.032,26.668,26.668,0,0,1-7.346,9.048A31.9,31.9,0,0,1,256.17-1.743,39.847,39.847,0,0,1,244.424,0h-24.4V-2.947a27.85,27.85,0,0,0,3.134-.228,9.973,9.973,0,0,0,2.552-.519,3.552,3.552,0,0,0,1.805-1.6,5.392,5.392,0,0,0,.56-2.552v-42.5a6.4,6.4,0,0,0-.477-2.532,3.574,3.574,0,0,0-1.888-1.785,11.31,11.31,0,0,0-2.781-.913,23.048,23.048,0,0,0-2.573-.374v-2.947h25.732a34.264,34.264,0,0,1,10.459,1.639,31.172,31.172,0,0,1,8.965,4.42,25.467,25.467,0,0,1,8.135,9.67A31.475,31.475,0,0,1,276.59-29.094Zm-10.168-.021a34.164,34.164,0,0,0-1.577-10.72,24.667,24.667,0,0,0-4.607-8.357,20.3,20.3,0,0,0-7.035-5.35,21.645,21.645,0,0,0-9.276-1.949q-1.7,0-3.839.062t-3.175.1V-10.08q0,3.774,2.2,5.226T245.877-3.4a21.328,21.328,0,0,0,9.214-1.866,16.624,16.624,0,0,0,6.392-5.184,23.162,23.162,0,0,0,3.756-8.066A42.607,42.607,0,0,0,266.422-29.115ZM315.646-9.629a20.959,20.959,0,0,1-6.89,7.8,17.346,17.346,0,0,1-9.919,2.905,20.172,20.172,0,0,1-8.654-1.743A16.99,16.99,0,0,1,284.062-5.4a20.1,20.1,0,0,1-3.59-6.973,29.455,29.455,0,0,1-1.183-8.425,24.832,24.832,0,0,1,1.266-7.823,22.073,22.073,0,0,1,3.715-6.91,17.976,17.976,0,0,1,5.873-4.752,16.929,16.929,0,0,1,7.865-1.805,18.931,18.931,0,0,1,7.678,1.411,13.665,13.665,0,0,1,5.188,3.86,15.41,15.41,0,0,1,2.843,5.479,24.032,24.032,0,0,1,.934,6.848v2.739h-27.1a32.23,32.23,0,0,0,.768,7.321,17.548,17.548,0,0,0,2.428,5.782,11.56,11.56,0,0,0,4.233,3.806A13.063,13.063,0,0,0,301.2-3.445a11.473,11.473,0,0,0,6.371-1.731,17.121,17.121,0,0,0,5.167-6.237Zm-9.172-15.605a33.817,33.817,0,0,0-.394-4.965,15.2,15.2,0,0,0-1.266-4.428,8.417,8.417,0,0,0-2.615-3.1,7.121,7.121,0,0,0-4.275-1.2,8.9,8.9,0,0,0-7.242,3.621q-2.885,3.621-3.134,10.076Zm50.844-13.157a10.287,10.287,0,0,0-3.549,1.349,7.967,7.967,0,0,0-2.885,3.59q-2.449,5.562-5.063,11.6T340.384-9.172q-.83,1.909-1.764,4.524T336.9.374h-3.237Q329.718-9.38,326.4-17.411t-6.89-16.456a6.193,6.193,0,0,0-2.677-2.968,10.8,10.8,0,0,0-3.715-1.349v-2.739h18.939v2.905a15.093,15.093,0,0,0-3.113.518q-1.868.477-1.868,1.3a2.674,2.674,0,0,0,.208.643q.208.518.415,1.181,1.7,4.229,4.8,11.816t5.049,12.231q1.494-3.565,3.756-8.872t4.878-11.857q.415-1.119.789-2.094a5.462,5.462,0,0,0,.374-1.969,1.618,1.618,0,0,0-.685-1.265,6.943,6.943,0,0,0-1.639-.974,10.573,10.573,0,0,0-1.868-.622q-.913-.207-1.494-.29v-2.656h15.66Zm25.319,18.345a10.455,10.455,0,0,1,2.615,3.445,11.211,11.211,0,0,1,.913,4.773,11.636,11.636,0,0,1-4.254,9.3q-4.254,3.611-11.019,3.611a16.558,16.558,0,0,1-6.578-1.287,18.112,18.112,0,0,1-4.3-2.366l-.83,2.7h-3.113l-.415-14.236h2.864a15.916,15.916,0,0,0,1.411,3.79,18.207,18.207,0,0,0,2.615,3.915,14.434,14.434,0,0,0,3.881,3.082,10.338,10.338,0,0,0,5.084,1.249,9.283,9.283,0,0,0,6.143-1.816,6.414,6.414,0,0,0,2.158-5.2,6.236,6.236,0,0,0-.685-3.009,6.629,6.629,0,0,0-2.013-2.22,15.846,15.846,0,0,0-3.362-1.722q-1.992-.768-4.441-1.515a41.241,41.241,0,0,1-4.337-1.6,17.288,17.288,0,0,1-4.088-2.386A11.7,11.7,0,0,1,357.9-25.11a10.191,10.191,0,0,1-1.162-4.98,11.2,11.2,0,0,1,3.735-8.508q3.735-3.486,10-3.486a20.394,20.394,0,0,1,4.918.623,17.014,17.014,0,0,1,4.088,1.494l.955-2.158h2.988l.623,13.157h-2.864a13.225,13.225,0,0,0-3.756-7.189,9.774,9.774,0,0,0-7.035-2.772,7.833,7.833,0,0,0-5.354,1.714,5.318,5.318,0,0,0-1.951,4.138,6.74,6.74,0,0,0,.643,3.113,5.729,5.729,0,0,0,1.93,2.117,16.1,16.1,0,0,0,3.134,1.556q1.888.726,4.669,1.639a40.153,40.153,0,0,1,5.167,2.034A16.948,16.948,0,0,1,382.636-20.046Z" transform="translate(319 830)" fill="url(#linear-gradient)"/>
      <g id="Repeat_Grid_3" data-name="Repeat Grid 3" transform="translate(330.159 859.099)" opacity="0.32" clip-path="url(#clip-path)">
        <g id="Group_1" data-name="Group 1" transform="translate(-379.159 -102.099)">
          <path id="Path_16" data-name="Path 16" d="M50.8,57.315a2.707,2.707,0,0,1-2.7-2.7V52.09a2.7,2.7,0,1,1,5.407,0v2.521a2.707,2.707,0,0,1-2.707,2.7Zm0-6.428a1.205,1.205,0,0,0-1.2,1.2v2.521a1.2,1.2,0,1,0,2.407,0V52.09a1.2,1.2,0,0,0-1.207-1.2Z" transform="translate(354 52.713)" fill="#f25a7b"/>
          <path id="Path_17" data-name="Path 17" d="M38.355,57.315a2.707,2.707,0,0,1-2.7-2.7V52.09a2.7,2.7,0,0,1,5.408,0v2.521a2.707,2.707,0,0,1-2.708,2.7Zm0-6.428a1.205,1.205,0,0,0-1.2,1.2v2.521a1.2,1.2,0,0,0,2.408,0V52.09A1.205,1.205,0,0,0,38.355,50.887Z" transform="translate(354 52.713)" fill="#f25a7b"/>
          <path id="Path_18" data-name="Path 18" d="M57.024,56.742a.75.75,0,0,1-.75-.75V50.209a.75.75,0,0,1,1.5,0v5.783a.75.75,0,0,1-.75.75Z" transform="translate(354 52.713)" fill="#f25a7b"/>
          <path id="Path_19" data-name="Path 19" d="M44.578,56.742a.75.75,0,0,1-.75-.75V50.209a.75.75,0,0,1,1.5,0v5.783a.75.75,0,0,1-.75.75Z" transform="translate(354 52.713)" fill="#f25a7b"/>
          <path id="Path_20" data-name="Path 20" d="M32.132,56.742a.75.75,0,0,1-.75-.75V50.209a.75.75,0,1,1,1.5,0v5.783a.75.75,0,0,1-.75.75Z" transform="translate(354 52.713)" fill="#f25a7b"/>
          <path id="Path_21" data-name="Path 21" d="M25.909,56.742a.75.75,0,0,1-.75-.75V50.209a.75.75,0,0,1,1.5,0v5.783a.75.75,0,0,1-.75.75Z" transform="translate(354 52.713)" fill="#f25a7b"/>
        </g>
        <g id="Group_1-2" data-name="Group 1" transform="translate(-326.159 -102.099)">
          <path id="Path_16-2" data-name="Path 16" d="M50.8,57.315a2.707,2.707,0,0,1-2.7-2.7V52.09a2.7,2.7,0,1,1,5.407,0v2.521a2.707,2.707,0,0,1-2.707,2.7Zm0-6.428a1.205,1.205,0,0,0-1.2,1.2v2.521a1.2,1.2,0,1,0,2.407,0V52.09a1.2,1.2,0,0,0-1.207-1.2Z" transform="translate(354 52.713)" fill="#f25a7b"/>
          <path id="Path_17-2" data-name="Path 17" d="M38.355,57.315a2.707,2.707,0,0,1-2.7-2.7V52.09a2.7,2.7,0,0,1,5.408,0v2.521a2.707,2.707,0,0,1-2.708,2.7Zm0-6.428a1.205,1.205,0,0,0-1.2,1.2v2.521a1.2,1.2,0,0,0,2.408,0V52.09A1.205,1.205,0,0,0,38.355,50.887Z" transform="translate(354 52.713)" fill="#f25a7b"/>
          <path id="Path_18-2" data-name="Path 18" d="M57.024,56.742a.75.75,0,0,1-.75-.75V50.209a.75.75,0,0,1,1.5,0v5.783a.75.75,0,0,1-.75.75Z" transform="translate(354 52.713)" fill="#f25a7b"/>
          <path id="Path_19-2" data-name="Path 19" d="M44.578,56.742a.75.75,0,0,1-.75-.75V50.209a.75.75,0,0,1,1.5,0v5.783a.75.75,0,0,1-.75.75Z" transform="translate(354 52.713)" fill="#f25a7b"/>
          <path id="Path_20-2" data-name="Path 20" d="M32.132,56.742a.75.75,0,0,1-.75-.75V50.209a.75.75,0,1,1,1.5,0v5.783a.75.75,0,0,1-.75.75Z" transform="translate(354 52.713)" fill="#f25a7b"/>
          <path id="Path_21-2" data-name="Path 21" d="M25.909,56.742a.75.75,0,0,1-.75-.75V50.209a.75.75,0,0,1,1.5,0v5.783a.75.75,0,0,1-.75.75Z" transform="translate(354 52.713)" fill="#f25a7b"/>
        </g>
        <g id="Group_1-3" data-name="Group 1" transform="translate(-273.159 -102.099)">
          <path id="Path_16-3" data-name="Path 16" d="M50.8,57.315a2.707,2.707,0,0,1-2.7-2.7V52.09a2.7,2.7,0,1,1,5.407,0v2.521a2.707,2.707,0,0,1-2.707,2.7Zm0-6.428a1.205,1.205,0,0,0-1.2,1.2v2.521a1.2,1.2,0,1,0,2.407,0V52.09a1.2,1.2,0,0,0-1.207-1.2Z" transform="translate(354 52.713)" fill="#f25a7b"/>
          <path id="Path_17-3" data-name="Path 17" d="M38.355,57.315a2.707,2.707,0,0,1-2.7-2.7V52.09a2.7,2.7,0,0,1,5.408,0v2.521a2.707,2.707,0,0,1-2.708,2.7Zm0-6.428a1.205,1.205,0,0,0-1.2,1.2v2.521a1.2,1.2,0,0,0,2.408,0V52.09A1.205,1.205,0,0,0,38.355,50.887Z" transform="translate(354 52.713)" fill="#f25a7b"/>
          <path id="Path_18-3" data-name="Path 18" d="M57.024,56.742a.75.75,0,0,1-.75-.75V50.209a.75.75,0,0,1,1.5,0v5.783a.75.75,0,0,1-.75.75Z" transform="translate(354 52.713)" fill="#f25a7b"/>
          <path id="Path_19-3" data-name="Path 19" d="M44.578,56.742a.75.75,0,0,1-.75-.75V50.209a.75.75,0,0,1,1.5,0v5.783a.75.75,0,0,1-.75.75Z" transform="translate(354 52.713)" fill="#f25a7b"/>
          <path id="Path_20-3" data-name="Path 20" d="M32.132,56.742a.75.75,0,0,1-.75-.75V50.209a.75.75,0,1,1,1.5,0v5.783a.75.75,0,0,1-.75.75Z" transform="translate(354 52.713)" fill="#f25a7b"/>
          <path id="Path_21-3" data-name="Path 21" d="M25.909,56.742a.75.75,0,0,1-.75-.75V50.209a.75.75,0,0,1,1.5,0v5.783a.75.75,0,0,1-.75.75Z" transform="translate(354 52.713)" fill="#f25a7b"/>
        </g>
        <g id="Group_1-4" data-name="Group 1" transform="translate(-220.159 -102.099)">
          <path id="Path_16-4" data-name="Path 16" d="M50.8,57.315a2.707,2.707,0,0,1-2.7-2.7V52.09a2.7,2.7,0,1,1,5.407,0v2.521a2.707,2.707,0,0,1-2.707,2.7Zm0-6.428a1.205,1.205,0,0,0-1.2,1.2v2.521a1.2,1.2,0,1,0,2.407,0V52.09a1.2,1.2,0,0,0-1.207-1.2Z" transform="translate(354 52.713)" fill="#f25a7b"/>
          <path id="Path_17-4" data-name="Path 17" d="M38.355,57.315a2.707,2.707,0,0,1-2.7-2.7V52.09a2.7,2.7,0,0,1,5.408,0v2.521a2.707,2.707,0,0,1-2.708,2.7Zm0-6.428a1.205,1.205,0,0,0-1.2,1.2v2.521a1.2,1.2,0,0,0,2.408,0V52.09A1.205,1.205,0,0,0,38.355,50.887Z" transform="translate(354 52.713)" fill="#f25a7b"/>
          <path id="Path_18-4" data-name="Path 18" d="M57.024,56.742a.75.75,0,0,1-.75-.75V50.209a.75.75,0,0,1,1.5,0v5.783a.75.75,0,0,1-.75.75Z" transform="translate(354 52.713)" fill="#f25a7b"/>
          <path id="Path_19-4" data-name="Path 19" d="M44.578,56.742a.75.75,0,0,1-.75-.75V50.209a.75.75,0,0,1,1.5,0v5.783a.75.75,0,0,1-.75.75Z" transform="translate(354 52.713)" fill="#f25a7b"/>
          <path id="Path_20-4" data-name="Path 20" d="M32.132,56.742a.75.75,0,0,1-.75-.75V50.209a.75.75,0,1,1,1.5,0v5.783a.75.75,0,0,1-.75.75Z" transform="translate(354 52.713)" fill="#f25a7b"/>
          <path id="Path_21-4" data-name="Path 21" d="M25.909,56.742a.75.75,0,0,1-.75-.75V50.209a.75.75,0,0,1,1.5,0v5.783a.75.75,0,0,1-.75.75Z" transform="translate(354 52.713)" fill="#f25a7b"/>
        </g>
        <g id="Group_1-5" data-name="Group 1" transform="translate(-167.159 -102.099)">
          <path id="Path_16-5" data-name="Path 16" d="M50.8,57.315a2.707,2.707,0,0,1-2.7-2.7V52.09a2.7,2.7,0,1,1,5.407,0v2.521a2.707,2.707,0,0,1-2.707,2.7Zm0-6.428a1.205,1.205,0,0,0-1.2,1.2v2.521a1.2,1.2,0,1,0,2.407,0V52.09a1.2,1.2,0,0,0-1.207-1.2Z" transform="translate(354 52.713)" fill="#f25a7b"/>
          <path id="Path_17-5" data-name="Path 17" d="M38.355,57.315a2.707,2.707,0,0,1-2.7-2.7V52.09a2.7,2.7,0,0,1,5.408,0v2.521a2.707,2.707,0,0,1-2.708,2.7Zm0-6.428a1.205,1.205,0,0,0-1.2,1.2v2.521a1.2,1.2,0,0,0,2.408,0V52.09A1.205,1.205,0,0,0,38.355,50.887Z" transform="translate(354 52.713)" fill="#f25a7b"/>
          <path id="Path_18-5" data-name="Path 18" d="M57.024,56.742a.75.75,0,0,1-.75-.75V50.209a.75.75,0,0,1,1.5,0v5.783a.75.75,0,0,1-.75.75Z" transform="translate(354 52.713)" fill="#f25a7b"/>
          <path id="Path_19-5" data-name="Path 19" d="M44.578,56.742a.75.75,0,0,1-.75-.75V50.209a.75.75,0,0,1,1.5,0v5.783a.75.75,0,0,1-.75.75Z" transform="translate(354 52.713)" fill="#f25a7b"/>
          <path id="Path_20-5" data-name="Path 20" d="M32.132,56.742a.75.75,0,0,1-.75-.75V50.209a.75.75,0,1,1,1.5,0v5.783a.75.75,0,0,1-.75.75Z" transform="translate(354 52.713)" fill="#f25a7b"/>
          <path id="Path_21-5" data-name="Path 21" d="M25.909,56.742a.75.75,0,0,1-.75-.75V50.209a.75.75,0,0,1,1.5,0v5.783a.75.75,0,0,1-.75.75Z" transform="translate(354 52.713)" fill="#f25a7b"/>
        </g>
        <g id="Group_1-6" data-name="Group 1" transform="translate(-114.159 -102.099)">
          <path id="Path_16-6" data-name="Path 16" d="M50.8,57.315a2.707,2.707,0,0,1-2.7-2.7V52.09a2.7,2.7,0,1,1,5.407,0v2.521a2.707,2.707,0,0,1-2.707,2.7Zm0-6.428a1.205,1.205,0,0,0-1.2,1.2v2.521a1.2,1.2,0,1,0,2.407,0V52.09a1.2,1.2,0,0,0-1.207-1.2Z" transform="translate(354 52.713)" fill="#f25a7b"/>
          <path id="Path_17-6" data-name="Path 17" d="M38.355,57.315a2.707,2.707,0,0,1-2.7-2.7V52.09a2.7,2.7,0,0,1,5.408,0v2.521a2.707,2.707,0,0,1-2.708,2.7Zm0-6.428a1.205,1.205,0,0,0-1.2,1.2v2.521a1.2,1.2,0,0,0,2.408,0V52.09A1.205,1.205,0,0,0,38.355,50.887Z" transform="translate(354 52.713)" fill="#f25a7b"/>
          <path id="Path_18-6" data-name="Path 18" d="M57.024,56.742a.75.75,0,0,1-.75-.75V50.209a.75.75,0,0,1,1.5,0v5.783a.75.75,0,0,1-.75.75Z" transform="translate(354 52.713)" fill="#f25a7b"/>
          <path id="Path_19-6" data-name="Path 19" d="M44.578,56.742a.75.75,0,0,1-.75-.75V50.209a.75.75,0,0,1,1.5,0v5.783a.75.75,0,0,1-.75.75Z" transform="translate(354 52.713)" fill="#f25a7b"/>
          <path id="Path_20-6" data-name="Path 20" d="M32.132,56.742a.75.75,0,0,1-.75-.75V50.209a.75.75,0,1,1,1.5,0v5.783a.75.75,0,0,1-.75.75Z" transform="translate(354 52.713)" fill="#f25a7b"/>
          <path id="Path_21-6" data-name="Path 21" d="M25.909,56.742a.75.75,0,0,1-.75-.75V50.209a.75.75,0,0,1,1.5,0v5.783a.75.75,0,0,1-.75.75Z" transform="translate(354 52.713)" fill="#f25a7b"/>
        </g>
        <g id="Group_1-7" data-name="Group 1" transform="translate(-61.159 -102.099)">
          <path id="Path_16-7" data-name="Path 16" d="M50.8,57.315a2.707,2.707,0,0,1-2.7-2.7V52.09a2.7,2.7,0,1,1,5.407,0v2.521a2.707,2.707,0,0,1-2.707,2.7Zm0-6.428a1.205,1.205,0,0,0-1.2,1.2v2.521a1.2,1.2,0,1,0,2.407,0V52.09a1.2,1.2,0,0,0-1.207-1.2Z" transform="translate(354 52.713)" fill="#f25a7b"/>
          <path id="Path_17-7" data-name="Path 17" d="M38.355,57.315a2.707,2.707,0,0,1-2.7-2.7V52.09a2.7,2.7,0,0,1,5.408,0v2.521a2.707,2.707,0,0,1-2.708,2.7Zm0-6.428a1.205,1.205,0,0,0-1.2,1.2v2.521a1.2,1.2,0,0,0,2.408,0V52.09A1.205,1.205,0,0,0,38.355,50.887Z" transform="translate(354 52.713)" fill="#f25a7b"/>
          <path id="Path_18-7" data-name="Path 18" d="M57.024,56.742a.75.75,0,0,1-.75-.75V50.209a.75.75,0,0,1,1.5,0v5.783a.75.75,0,0,1-.75.75Z" transform="translate(354 52.713)" fill="#f25a7b"/>
          <path id="Path_19-7" data-name="Path 19" d="M44.578,56.742a.75.75,0,0,1-.75-.75V50.209a.75.75,0,0,1,1.5,0v5.783a.75.75,0,0,1-.75.75Z" transform="translate(354 52.713)" fill="#f25a7b"/>
          <path id="Path_20-7" data-name="Path 20" d="M32.132,56.742a.75.75,0,0,1-.75-.75V50.209a.75.75,0,1,1,1.5,0v5.783a.75.75,0,0,1-.75.75Z" transform="translate(354 52.713)" fill="#f25a7b"/>
          <path id="Path_21-7" data-name="Path 21" d="M25.909,56.742a.75.75,0,0,1-.75-.75V50.209a.75.75,0,0,1,1.5,0v5.783a.75.75,0,0,1-.75.75Z" transform="translate(354 52.713)" fill="#f25a7b"/>
        </g>
      </g>
    </g>
  </g>
</svg>
